<svg id="Capa_1" enable-background="new 0 0 512 512" height="512" viewBox="0 0 512 512" width="512" xmlns="http://www.w3.org/2000/svg"><circle cx="256" cy="256" fill="#00d65b" r="256"/><path d="m256 512c138.356 0 251.058-109.762 255.824-246.956l-164.246-164.246-201.701 127.306 69.709 69.709-22.739 2.457 65.998 65.998-47.416 141.857c14.475 2.542 29.367 3.875 44.571 3.875z" fill="#06bf51"/><path d="m439.58 434.396-32.84-41.52-101.934-37.124c-9.402-3.424-15.659-12.362-15.659-22.368v-22.078h-66.294v22.078c0 10.006-6.257 18.944-15.659 22.368l-101.934 37.124-31.482 42.911c46.419 47.045 110.91 76.213 182.222 76.213 72.011 0 137.065-29.745 183.58-77.604z" fill="#805142"/><path d="m406.74 392.876-101.934-37.125c-9.402-3.424-15.659-12.362-15.659-22.368v-22.078h-33.571v200.688c.142 0 .282.005.424.005 72.011 0 137.065-29.745 183.58-77.604z" fill="#5e382c"/><circle cx="166.449" cy="206.671" fill="#805142" r="29.716"/><circle cx="345.551" cy="206.671" fill="#5e382c" r="29.716"/><path d="m295.566 317.923-19.844 10.194c-12.379 6.359-27.065 6.359-39.443 0l-19.844-10.194c-29.406-15.106-47.895-45.389-47.895-78.448v-77.346c0-48.303 39.157-87.46 87.46-87.46 48.303 0 87.46 39.157 87.46 87.46v77.346c.001 33.059-18.488 63.342-47.894 78.448z" fill="#966857"/><path d="m256 74.668c-.142 0-.283.005-.424.005v258.2c6.907.067 13.827-1.511 20.146-4.757l19.844-10.194c29.406-15.105 47.895-45.389 47.895-78.448v-77.346c0-48.302-39.158-87.46-87.461-87.46z" fill="#805142"/><path d="m343.904 191.782-159.99-28.503c-10.416-1.856-17.865-11.114-17.448-21.686l1.293-32.752c.514-13.016 12.544-22.487 25.316-19.933l167.49 33.498c12.367 2.473 19.845 15.14 16.037 27.163l-8.792 27.757c-3.211 10.136-13.439 16.321-23.906 14.456z" fill="#f92814"/><path d="m360.564 122.406-104.969-20.994v74.637l88.309 15.732c10.467 1.864 20.695-4.32 23.905-14.456l8.792-27.757c3.809-12.022-3.67-24.688-16.037-27.162z" fill="#c10000"/><path d="m336 103.5-24.42-28.235c-14.449-16.706-37.104-23.803-58.501-18.326l-27.293 6.986c-14.02 3.588-26.201 12.267-34.173 24.345l-37.613 56.991 145.518 2.739z" fill="#f92814"/><path d="m336 103.5-24.42-28.235c-13.884-16.053-35.343-23.227-55.985-18.905v90.813l43.923.827z" fill="#c10000"/><path d="m176.566 196.741 159.99-28.503c10.416-1.856 17.865-11.114 17.448-21.686l-1.293-32.752c-.514-13.016-12.544-22.487-25.316-19.933l-167.49 33.498c-12.367 2.473-19.845 15.14-16.037 27.163l8.792 27.757c3.211 10.136 13.439 16.321 23.906 14.456z" fill="#ff583e"/><path d="m352.711 113.8c-.514-13.016-12.543-22.487-25.316-19.932l-71.8 14.36v74.434l80.961-14.423c10.416-1.856 17.865-11.114 17.448-21.687z" fill="#f92814"/><path d="m141.827 485.162c34.373 17.164 73.139 26.838 114.173 26.838s79.801-9.67 114.174-26.835l-35.251-118.444-27.78-10.117c-12.518 14.124-30.785 23.036-51.143 23.036s-38.625-8.912-51.143-23.036l-27.78 10.117z" fill="#fdba12"/><path d="m334.923 366.721-27.78-10.117c-12.518 14.124-30.785 23.036-51.143 23.036-.142 0-.282-.011-.424-.012v132.367c.142 0 .282.005.424.005 41.034 0 79.801-9.67 114.174-26.835z" fill="#ffa300"/><path d="m204.25 363.5h30v67h-30z" fill="#fff"/><path d="m277.75 363.5h30v67h-30z" fill="#e9edf5"/><path d="m241 378.153h30v67h-30z" fill="#fff"/><path d="m255.595 378.153h15.405v67h-15.405z" fill="#e9edf5"/><path d="m295.65 383.459c-25.16 5.742-51.296 5.762-76.462.063-10.971-2.485-17.544-13.772-14.379-24.567 2.431-8.291 4.952-16.552 7.562-24.782 28.174 10.646 59.187 10.928 87.511.847 2.997 7.17 6.067 14.312 9.207 21.425 4.964 11.239-1.46 24.28-13.439 27.014z" fill="#f92814"/><path d="m309.09 356.444c-3.141-7.113-6.21-14.255-9.207-21.425-14.313 5.094-29.314 7.538-44.287 7.339v45.398c13.433.131 26.878-1.291 40.054-4.298 11.979-2.733 18.403-15.773 13.44-27.014z" fill="#c10000"/></svg>