<?xml version="1.0" encoding="iso-8859-1"?>
<!-- Generator: Adobe Illustrator 18.0.0, SVG Export Plug-In . SVG Version: 6.00 Build 0)  -->
<!DOCTYPE svg PUBLIC "-//W3C//DTD SVG 1.1//EN" "http://www.w3.org/Graphics/SVG/1.1/DTD/svg11.dtd">
<svg version="1.1" id="Capa_1" xmlns="http://www.w3.org/2000/svg" xmlns:xlink="http://www.w3.org/1999/xlink" x="0px" y="0px"
	 viewBox="0 0 91.823 91.823" style="enable-background:new 0 0 91.823 91.823;" xml:space="preserve">
<g>
	<path style="fill-rule:evenodd;clip-rule:evenodd;fill:#5EBE79;" d="M45.911,91.822c25.287,0,45.912-20.624,45.912-45.911
		S71.198,0,45.911,0C20.624,0,0,20.624,0,45.911S20.624,91.822,45.911,91.822z"/>
	<g>
		<path style="fill-rule:evenodd;clip-rule:evenodd;fill:#E72C4F;" d="M33.093,83.915l-1.941,5.483
			c-5.354-1.816-10.264-4.595-14.524-8.127l1.002-2.83C21.062,68.743,36.349,74.718,33.093,83.915z"/>
		<path style="fill-rule:evenodd;clip-rule:evenodd;fill:#E72C4F;" d="M23.892,73.479h44.077v12.706
			c-6.546,3.593-14.062,5.638-22.058,5.638c-7.979,0-15.481-2.036-22.019-5.616V73.479z"/>
		<path style="fill-rule:evenodd;clip-rule:evenodd;fill:#CB1A3B;" d="M33.681,73.479H58.18v1.539c0,6.737-5.513,12.25-12.25,12.25
			l0,0c-6.737,0-12.249-5.513-12.249-12.25V73.479z"/>
		<path style="fill-rule:evenodd;clip-rule:evenodd;fill:#FBD9BD;" d="M45.93,40.72L45.93,40.72c5.475,0,9.953,4.479,9.953,9.953
			v22.806c0,5.475-4.479,9.954-9.953,9.954l0,0c-5.474,0-9.953-4.479-9.953-9.954V50.673C35.977,45.198,40.456,40.72,45.93,40.72z"
			/>
		<path style="fill-rule:evenodd;clip-rule:evenodd;fill:#E72C4F;" d="M58.393,83.915l1.976,5.582
			c5.361-1.777,10.284-4.516,14.564-8.013l-1.077-3.043C70.424,68.743,55.138,74.718,58.393,83.915z"/>
		<path style="fill-rule:evenodd;clip-rule:evenodd;fill:#F6C4A9;" d="M55.884,55.937v15.008c-3.767,2.709-7.397,4.227-9.953,4.227
			c-2.557,0-6.188-1.518-9.953-4.227V55.937C35.977,43.832,55.884,43.832,55.884,55.937z"/>
		
			<ellipse transform="matrix(-0.3128 -0.9498 0.9498 -0.3128 -11.0597 77.6216)" style="fill-rule:evenodd;clip-rule:evenodd;fill:#FFDDCB;" cx="22.55" cy="42.812" rx="5.701" ry="3.298"/>
		
			<ellipse transform="matrix(0.3128 -0.9498 0.9498 0.3128 7.1304 95.4786)" style="fill-rule:evenodd;clip-rule:evenodd;fill:#FFDDCB;" cx="69.547" cy="42.812" rx="5.701" ry="3.297"/>
		<path style="fill-rule:evenodd;clip-rule:evenodd;fill:#F6C4A9;" d="M34.679,55.197c3.041,2.169,20.205,2.05,23.246,0
			C55.282,66.609,38.183,66.96,34.679,55.197z"/>
		<path style="fill-rule:evenodd;clip-rule:evenodd;fill:#FBD9BD;" d="M45.93,15.591c-32.956,0-21.104,39.821-18.952,42.991
			c2.374,3.495,13.627,12.762,18.952,12.762c5.325,0,16.578-9.266,18.952-12.762C67.035,55.412,78.886,15.591,45.93,15.591z"/>
		<path style="fill-rule:evenodd;clip-rule:evenodd;fill:#FFFFFF;" d="M38.29,57.258c2.096,1.139,13.927,1.076,16.022,0
			C52.491,63.249,40.706,63.434,38.29,57.258z"/>
		<path style="fill-rule:evenodd;clip-rule:evenodd;fill:#E19C26;" d="M80.202,45.818c-9.123-0.432-11.842-4.562-12.548-15.312
			c-1.243-18.915-35.598-20.93-40.411-9.189c-10.682,9.438-2.823,34.458-2.823,28.102c0-6.357,1.993-11.823,4.802-16.573
			c3.49,7.256,11.32,13.82,19.556,13.104c-5.644-4.735-8.774-6.779-10.086-14.406C42.735,43.042,61.35,50.281,80.202,45.818z"/>
		<path style="opacity:0.2;fill-rule:evenodd;clip-rule:evenodd;" d="M45.911,14.108c10.307,0.69,21.037,5.979,21.721,16.398
			l0.001,0.014c0.605,2.269,0.918,4.646,1.02,7.018c0.048,0.178,0.098,0.354,0.148,0.525c0.827-0.656,1.717-0.926,2.508-0.665
			c1.724,0.567,2.33,3.437,1.358,6.417c1.824,1.226,4.261,1.85,7.513,2.004c-3.172,0.751-6.338,1.169-9.429,1.293
			c-0.912,0.927-1.95,1.386-2.87,1.156c-0.924,5.304-2.389,9.387-3.021,10.315c-1.252,1.845-4.977,5.295-8.998,8.144v4.219l0,0
			v2.534h2.296h9.788v0.067c2.509,0.316,4.798,1.813,5.889,4.895l1.082,3.057c-7.908,6.453-18.004,10.324-29.007,10.324V14.108z"/>
	</g>
</g>
<g>
</g>
<g>
</g>
<g>
</g>
<g>
</g>
<g>
</g>
<g>
</g>
<g>
</g>
<g>
</g>
<g>
</g>
<g>
</g>
<g>
</g>
<g>
</g>
<g>
</g>
<g>
</g>
<g>
</g>
</svg>
