<svg height="512pt" viewBox="0 0 512 512" width="512pt" xmlns="http://www.w3.org/2000/svg"><path d="m512 256c0 141.386719-114.613281 256-256 256s-256-114.613281-256-256 114.613281-256 256-256 256 114.613281 256 256zm0 0" fill="#4ab8f7"/><path d="m256 512c130.457031 0 238.121094-97.585938 253.984375-223.742188l-167.316406-167.316406-200.667969 78.769532 144.242188 144.242187-42.441407 167.75c4.042969.191406 8.109375.296875 12.199219.296875zm0 0" fill="#368dcf"/><path d="m367 425.289062h-222v-235c0-61.304687 49.695312-111 111-111s111 49.695313 111 111zm0 0" fill="#ffce00"/><path d="m367 190.289062c0-61.300781-49.695312-111-111-111-.136719 0-.269531.003907-.40625.007813v345.992187h111.40625zm0 0" fill="#ffb600"/><path d="m191.578125 226c0 14.519531-11.769531 26.289062-26.289063 26.289062-14.519531 0-26.289062-11.769531-26.289062-26.289062s11.769531-26.289062 26.289062-26.289062c14.519532 0 26.289063 11.769531 26.289063 26.289062zm0 0" fill="#ffcdbe"/><path d="m373 226c0 14.519531-11.769531 26.289062-26.289062 26.289062-14.519532 0-26.289063-11.769531-26.289063-26.289062s11.769531-26.289062 26.289063-26.289062c14.519531 0 26.289062 11.769531 26.289062 26.289062zm0 0" fill="#faa68e"/><path d="m256 512c61.3125 0 117.585938-21.566406 161.664062-57.511719l-20.269531-31.757812c-4.339843-6.796875-10.566406-12.1875-17.917969-15.503907l-79.800781-36.015624c-8.398437-3.789063-13.988281-13.6875-13.988281-24.765626v-24.441406h-59.226562v24.441406c0 11.078126-5.589844 20.976563-13.992188 24.765626l-79.105469 35.703124c-7.785156 3.511719-14.296875 9.339844-18.648437 16.691407l-18.960938 32.027343c43.867188 35.257813 99.585938 56.367188 160.246094 56.367188zm0 0" fill="#faa68e"/><path d="m417.664062 454.488281-20.269531-31.757812c-4.339843-6.796875-10.566406-12.1875-17.917969-15.503907l-79.800781-36.015624c-8.398437-3.792969-13.988281-13.6875-13.988281-24.765626v-24.441406h-30.089844v189.992188c.132813 0 .269532.003906.402344.003906 61.3125 0 117.585938-21.566406 161.664062-57.511719zm0 0" fill="#d47f6c"/><path d="m167.671875 188.332031c-1.554687 6.660157-2.382813 13.597657-2.382813 20.730469v41.972656c0 34.285156 19.175782 65.695313 49.675782 81.363282l20.582031 10.570312c12.835937 6.597656 28.066406 6.597656 40.90625 0l20.582031-10.570312c30.5-15.667969 49.675782-47.078126 49.675782-81.363282v-41.972656c0-7.132812-.828126-14.074219-2.382813-20.730469zm0 0" fill="#ffbeaa"/><path d="m344.328125 188.332031h-88.734375v159.574219c7.152344.0625 14.316406-1.574219 20.859375-4.9375l20.582031-10.570312c30.5-15.667969 49.675782-47.078126 49.675782-81.363282v-41.972656c0-7.132812-.828126-14.070312-2.382813-20.730469zm0 0" fill="#e09380"/><path d="m142 157.929688h225v41.78125h-225zm0 0" fill="#fa5d0f"/><path d="m255.59375 157.929688h111.40625v41.78125h-111.40625zm0 0" fill="#d13400"/><path d="m143.5 486.003906c33.957031 16.640625 72.132812 25.996094 112.5 25.996094s78.542969-9.355469 112.5-25.996094c0-13.148437-11.71875-23.199218-24.710938-21.195312l-87.789062 13.523437-87.789062-13.523437c-12.992188-2.003906-24.710938 8.046875-24.710938 21.195312zm0 0" fill="#966857"/><path d="m343.789062 464.808594-87.789062 13.523437-.40625-.0625v33.722657c.136719 0 .269531.007812.40625.007812 40.367188 0 78.542969-9.355469 112.5-25.996094 0-13.148437-11.71875-23.199218-24.710938-21.195312zm0 0" fill="#805142"/><path d="m180.332031 385.714844-24 10.832031v75.257813h24zm0 0" fill="#966857"/><path d="m331.667969 385.714844v86.089844h22v-76.160157zm0 0" fill="#805142"/></svg>