<?xml version="1.0" encoding="iso-8859-1"?>
<!-- Generator: Adobe Illustrator 18.0.0, SVG Export Plug-In . SVG Version: 6.00 Build 0)  -->
<!DOCTYPE svg PUBLIC "-//W3C//DTD SVG 1.1//EN" "http://www.w3.org/Graphics/SVG/1.1/DTD/svg11.dtd">
<svg version="1.1" id="Capa_1" xmlns="http://www.w3.org/2000/svg" xmlns:xlink="http://www.w3.org/1999/xlink" x="0px" y="0px"
	 viewBox="0 0 91.824 91.824" style="enable-background:new 0 0 91.824 91.824;" xml:space="preserve">
<g>
	<path style="fill-rule:evenodd;clip-rule:evenodd;fill:#497193;" d="M45.912,91.823c25.288,0,45.912-20.624,45.912-45.911
		S71.2,0,45.912,0C20.624,0,0,20.625,0,45.912S20.624,91.823,45.912,91.823z"/>
	<g>
		<path style="fill-rule:evenodd;clip-rule:evenodd;fill:#FBD9BD;" d="M34.292,85.995l-1.268,3.991
			c-5.43-1.584-10.442-4.145-14.836-7.479l0.47-1.479C21.773,71.225,37.247,76.696,34.292,85.995z"/>
		<path style="fill-rule:evenodd;clip-rule:evenodd;fill:#FBD9BD;" d="M57.913,85.995l1.234,3.888
			c5.422-1.629,10.421-4.232,14.795-7.609l-0.396-1.244C70.431,71.225,54.957,76.696,57.913,85.995z"/>
		<path style="fill-rule:evenodd;clip-rule:evenodd;fill:#E72C4F;" d="M23.977,75.801h44.076v10.338
			c-6.567,3.621-14.112,5.686-22.142,5.686c-7.944,0-15.417-2.02-21.934-5.57V75.801z"/>
		<path style="fill-rule:evenodd;clip-rule:evenodd;fill:#FBD9BD;" d="M46.015,43.041L46.015,43.041
			c5.475,0,9.953,4.478,9.953,9.953v22.807c0,5.475-4.479,9.953-9.953,9.953l0,0c-5.475,0-9.954-4.479-9.954-9.953V52.994
			C36.061,47.519,40.541,43.041,46.015,43.041z"/>
		<path style="fill-rule:evenodd;clip-rule:evenodd;fill:#E72C4F;" d="M59.17,85.766l1.088,3.769
			c5.43-1.784,10.412-4.554,14.736-8.097l-0.063-0.221C72.08,71.333,56.465,76.392,59.17,85.766z"/>
		<path style="fill-rule:evenodd;clip-rule:evenodd;fill:#E72C4F;" d="M33.374,85.766l-1.149,3.982
			c-5.44-1.697-10.447-4.381-14.811-7.84l0.199-0.691C20.465,71.333,36.08,76.392,33.374,85.766z"/>
		<path style="fill-rule:evenodd;clip-rule:evenodd;fill:#E72C4F;" d="M36.061,81.061l9.954,4.693l9.953-4.693l4.18,8.51
			c-4.482,1.461-9.267,2.254-14.236,2.254c-4.911,0-9.642-0.775-14.078-2.203L36.061,81.061z"/>
		<path style="fill-rule:evenodd;clip-rule:evenodd;fill:#F97D93;" d="M35.47,72.047l-3.254,3.754l3.797,14.949
			c0.253,0.056,0.505,0.111,0.76,0.162l6.205-7.354L35.47,72.047z"/>
		<path style="fill-rule:evenodd;clip-rule:evenodd;fill:#F97D93;" d="M56.742,72.047l3.254,3.754L56.221,90.66
			c-0.278,0.064-0.56,0.125-0.84,0.184l-6.147-7.285L56.742,72.047z"/>
		<path style="fill-rule:evenodd;clip-rule:evenodd;fill:#BC1837;" d="M49.999,84.465c-1.216,0.78-2.474,1.289-3.983,1.289
			l3.219-2.195L49.999,84.465L49.999,84.465z M46.015,85.754l-3.037-2.195l-0.946,1.121C43.153,85.256,44.695,85.754,46.015,85.754z
			"/>
		<path style="fill-rule:evenodd;clip-rule:evenodd;fill:#ECC2A0;" d="M55.834,58.158v15.009c-3.716,2.708-7.298,4.227-9.819,4.227
			c-2.521,0-6.104-1.519-9.819-4.226v-15.01C36.196,46.055,55.834,46.055,55.834,58.158z"/>
		<path style="fill-rule:evenodd;clip-rule:evenodd;fill:#FBD9BD;" d="M46.015,17.913c-32.956,0-21.104,39.821-18.952,42.991
			c2.374,3.496,13.628,12.762,18.952,12.762c5.324,0,16.577-9.266,18.951-12.762C67.12,57.734,78.971,17.913,46.015,17.913z"/>
		<path style="fill-rule:evenodd;clip-rule:evenodd;fill:#FFFFFF;" d="M35.45,57.42c2.764,2.169,18.367,2.049,21.132,0
			C54.18,68.831,38.634,69.183,35.45,57.42z"/>
		
			<ellipse transform="matrix(-0.3128 -0.9498 0.9498 -0.3128 -15.0879 82.9729)" style="fill-rule:evenodd;clip-rule:evenodd;fill:#FFDDCB;" cx="22.473" cy="46.945" rx="5.702" ry="3.297"/>
		
			<ellipse transform="matrix(0.3128 -0.9498 0.9498 0.3128 3.1531 98.2475)" style="fill-rule:evenodd;clip-rule:evenodd;fill:#FFDDCB;" cx="69.47" cy="46.945" rx="5.702" ry="3.297"/>
		<path style="fill-rule:evenodd;clip-rule:evenodd;fill:#D56C2B;" d="M46.015,67.023c3.418,0.395,1.603,4.583,4.87,3.035
			c3.427-1.623,9.56-5.051,12.085-8.297c2.525-3.246,2.887-4.689,3.788-12.986c0.902-8.298-0.18-23.269-5.592-22.908
			c-5.411,0.36-8.838,1.262-15.151,1.262v-9.216c23.035,0,22.806,12.339,22.784,23.826c-0.017,9.149-2.878,17.759-3.833,19.165
			C62.592,64.4,51.339,73.665,46.015,73.666V67.023z M45.474,66.993c0.193,0,0.374,0.011,0.541,0.03v6.643l0,0
			c-5.324,0-16.578-9.266-18.952-12.762c-1.017-1.497-4.197-11.172-3.798-20.963c0.445-10.94-0.774-22.028,22.75-22.028l0,0v9.216
			l0,0c-6.313,0-9.741-0.901-15.152-1.262c-5.411-0.361-6.493,14.61-5.591,22.908c0.901,8.297,1.262,9.74,3.787,12.986
			c2.525,3.246,8.658,6.674,12.085,8.297C44.572,71.683,41.326,66.993,45.474,66.993z"/>
		<path style="opacity:0.2;fill-rule:evenodd;clip-rule:evenodd;" d="M45.996,17.913c23.032,0.001,22.803,12.339,22.782,23.826
			c0,0.139-0.001,0.277-0.003,0.415c0.813-0.625,1.682-0.879,2.457-0.624c1.73,0.569,2.334,3.456,1.348,6.446
			c-0.984,2.991-3.185,4.953-4.914,4.384l-0.034-0.012c-0.585,2.84-1.293,5.214-1.874,6.771l-0.034,0.093l-0.008,0.02l-0.042,0.11
			c-0.042,0.107-0.082,0.211-0.122,0.31l-0.037,0.092l-0.003,0.006l-0.039,0.095l-0.024,0.059l-0.014,0.031l-0.038,0.089
			l-0.014,0.03l-0.023,0.055l-0.036,0.082l-0.002,0.004l-0.034,0.074l-0.027,0.057l-0.042,0.09l-0.016,0.032l-0.005,0.009
			l-0.046,0.092l-0.006,0.011l-0.053,0.101l-0.001,0.002l-0.004,0.006c-0.051,0.095-0.099,0.174-0.143,0.238l0,0
			c-0.036,0.053-0.074,0.107-0.114,0.164l-0.004,0.004l-0.007,0.01c-0.038,0.053-0.079,0.108-0.121,0.164l-0.003,0.004
			c-0.043,0.056-0.087,0.113-0.133,0.171l-0.016,0.021c-0.097,0.121-0.2,0.246-0.311,0.377l-0.009,0.01l-0.167,0.191l-0.015,0.018
			l-0.152,0.172l-0.027,0.029l-0.027,0.029c-0.119,0.133-0.244,0.267-0.375,0.404l-0.007,0.007l-0.22,0.229l-0.005,0.006
			l-0.224,0.227l-0.02,0.019l-0.188,0.189l-0.03,0.03l-0.033,0.032c-0.146,0.144-0.296,0.29-0.45,0.437l-0.021,0.02l-0.064,0.061
			l-0.188,0.179l-0.011,0.011l-0.081,0.076l-0.145,0.133l-0.001,0.001l-0.12,0.112l-0.024,0.021L61.484,64.6l-0.032,0.029
			l-0.118,0.106l-0.152,0.138l-0.136,0.121l-0.037,0.033l-0.294,0.26l-0.145,0.126l-0.016,0.013l-0.16,0.14l-0.03,0.026
			c-0.261,0.224-0.528,0.449-0.801,0.676l-0.171,0.141v0.001l-0.171,0.141l-0.174,0.142c-0.174,0.141-0.35,0.282-0.527,0.424
			l-0.178,0.141c-0.596,0.469-1.209,0.934-1.832,1.387l-0.188,0.136l-0.188,0.135l-0.188,0.134l0,0v4.186l0.773-1.186l3.254,3.754
			h8.058v0.043c2.991,0.09,5.817,1.698,6.878,5.373l0.067,0.235c-7.896,6.465-17.984,10.351-28.981,10.37V17.913z"/>
	</g>
</g>
<g>
</g>
<g>
</g>
<g>
</g>
<g>
</g>
<g>
</g>
<g>
</g>
<g>
</g>
<g>
</g>
<g>
</g>
<g>
</g>
<g>
</g>
<g>
</g>
<g>
</g>
<g>
</g>
<g>
</g>
</svg>
